<svg width="129" height="32" viewBox="0 0 129 32" fill="none" xmlns="http://www.w3.org/2000/svg">
<g clip-path="url(#clip0_1_183)">
<path d="M26.1588 21.646C26.0209 22.2635 24.1233 24.3846 21.6433 22.9984C20.2055 22.1925 19.1664 19.7782 22.9921 16.7278C29.9632 11.1705 24.9173 4.63135 24.9173 4.63135C21.6004 11.0624 7.00839 10.1887 2.12495 17.1138C-3.41448 24.9835 2.63691 33.8537 11.5208 31.6616C4.75826 28.6853 4.61111 19.5775 12.6306 17.6972C14.0837 17.3577 17.4251 16.8266 18.6299 16.0517C18.6299 16.0517 18.4122 18.7006 15.1934 20.8032C14.5496 21.2231 12.4528 22.1925 12.4528 23.6807C12.4528 26.3852 16.7813 25.7153 17.8666 23.8628C18.4797 26.3173 17.1186 28.6946 13.6115 28.9539C15.6103 32.3902 22.3146 33.5449 25.5273 29.0775C27.1889 26.7619 27.4249 23.5201 26.1588 21.646Z" fill="white"/>
<path d="M22.8513 4.04451C23.6575 2.89599 23.8138 1.48196 23.1578 0C21.343 2.71383 16.1071 3.21708 16.1071 7.71853C19.05 6.87258 21.5606 5.8846 22.8513 4.04451Z" fill="white"/>
<path d="M48.6386 13.6805C49.4111 12.5969 49.1688 11.4391 48.47 10.5623C47.2682 12.2789 43.5038 12.3005 44.1291 15.7152C45.5178 15.1872 47.8016 14.8568 48.6386 13.6805Z" fill="white"/>
<path d="M61.6823 27.9628C58.1876 27.9628 56.0969 25.8973 56.7621 21.8559C57.271 18.7685 59.9196 16.4529 63.4358 16.4529C66.9059 16.4529 68.4666 18.5863 67.9391 21.7879C67.7459 22.9673 66.6853 23.239 65.8116 23.239H60.2047C60.3825 24.7364 61.4309 25.4867 63.5186 25.4867C65.2289 25.4867 65.8237 25.1779 66.869 24.8383C66.8569 24.8383 67.0565 27.9628 61.6823 27.9628ZM60.3303 21.2662H63.9903C64.3062 21.2662 64.5762 21.0346 64.622 20.7197C64.8247 19.4848 64.2267 18.6759 63.0219 18.6759C61.5106 18.682 60.689 19.6545 60.3273 21.2662H60.3303Z" fill="white"/>
<path d="M72.4885 27.9628C68.6071 27.9628 69.4567 24.8383 69.4567 24.8383C70.1004 25.4867 71.21 25.6071 72.0837 25.6071C73.1475 25.6071 73.9228 25.3539 74.0302 24.7611C74.2723 23.2853 68.8651 24.4524 69.5482 20.2905C69.9409 17.9071 72.3779 16.4529 75.1397 16.4529C77.7152 16.4529 79.1558 17.5891 78.9042 19.108C78.739 20.1053 77.9446 20.4912 76.9057 20.4912H75.9861L76.0503 20.1053C76.1882 19.2656 75.7777 18.7438 74.7876 18.7438C73.8675 18.7438 73.2822 19.2871 73.1869 19.8552C72.8164 22.1029 78.2973 20.5128 77.6479 24.4616C77.2488 26.8729 74.827 27.9628 72.4885 27.9628Z" fill="white"/>
<path d="M83.9352 19.2008L83.3219 22.9705C83.0551 24.5821 83.5056 25.4404 85.0631 25.4404C85.7806 25.4404 86.4948 25.3046 87.1602 25.0329C87.1602 25.0329 88.1165 27.9597 83.1351 27.9597C80.7991 27.9597 79.349 26.8699 79.8974 23.5324L81.1239 16.1226C81.4092 14.3967 82.0434 12.958 84.9742 12.958L84.3609 16.6783L86.8138 16.5518C87.9723 16.5518 88.2176 17.1693 87.5338 19.1977L83.9352 19.2008Z" fill="white"/>
<path d="M93.1622 27.9628C89.622 27.9628 87.6781 25.5576 88.2576 21.9917C88.8308 18.5184 91.3231 16.4529 95.0508 16.4529C98.7785 16.4529 100.569 18.5184 99.9954 21.9917C99.4133 25.5576 96.6573 27.9628 93.1622 27.9628ZM94.6276 19.0648C92.8343 19.0648 92.0253 20.2442 91.7368 21.9917C91.449 23.7392 91.9732 25.2829 93.6038 25.2829C95.2344 25.2829 96.2461 23.7176 96.5314 21.9917C96.8168 20.2659 96.3999 19.0648 94.6276 19.0648Z" fill="white"/>
<path d="M126.022 16.4529C124.44 16.4529 123.048 17.0209 121.657 18.5863C121.427 17.2711 120.497 16.4529 118.916 16.4529C117.334 16.4529 116.022 17.1105 114.82 18.5184L115.127 16.5888C112.2 16.5888 111.798 16.5888 111.513 18.3146L109.961 27.7343C112.846 27.7343 113.284 27.7343 113.566 26.0671L114.241 21.9701C114.529 20.2226 115.719 19.3149 116.828 19.3149C117.938 19.3149 118.291 20.0405 118.07 21.3804L117.021 27.7374C119.885 27.7374 120.339 27.7374 120.62 26.1011L121.313 21.9022C121.62 20.2226 122.828 19.3149 123.888 19.3149C124.998 19.3149 125.351 20.0405 125.114 21.3804L124.066 27.7374C126.969 27.7374 127.395 27.7374 127.677 26.0331L128.661 20.0621C129.053 17.8391 128.241 16.4529 126.022 16.4529Z" fill="white"/>
<path d="M109.348 16.4529C108.214 16.4529 106.936 17.2032 105.749 18.8147L106.117 16.5888C103.19 16.5888 102.788 16.5888 102.503 18.3146L100.952 27.7343C103.837 27.7343 104.275 27.7343 104.557 26.0671L105.014 23.2884C105.529 20.1547 107.27 19.2038 109.894 19.6113C110.48 17.1383 110.341 16.4529 109.348 16.4529Z" fill="white"/>
<path d="M56.3911 16.4529C55.2568 16.4529 53.9785 17.2032 52.789 18.8147L53.1569 16.5888C50.2293 16.5888 49.8277 16.5888 49.5426 18.3146L47.9915 27.7343C50.8761 27.7343 51.3145 27.7343 51.5965 26.0671L52.0564 23.2884C52.5714 20.1547 54.3126 19.2038 56.9367 19.6113C57.5314 17.1383 57.3812 16.4529 56.3911 16.4529Z" fill="white"/>
<path d="M47.1702 16.5918C44.2426 16.5918 43.841 16.5918 43.5559 18.3177L42.0048 27.7373C44.8894 27.7373 45.3278 27.7373 45.6098 26.0701L47.1702 16.5918Z" fill="white"/>
<path d="M40.892 16.5548L38.4396 16.6783L38.5346 16.101C38.7768 14.6252 39.5953 13.8224 41.1311 13.8224C41.4499 13.8317 41.7687 13.878 42.0784 13.9583C42.0784 13.9583 43.4487 11.3247 40.3157 11.3247C37.5046 11.3247 35.6867 13.1772 35.2606 15.7737L33.2894 27.7312C36.1833 27.7312 36.6156 27.7312 36.8976 26.0455L38.0257 19.1945H41.6124C42.3083 17.1692 42.0631 16.5548 40.892 16.5548Z" fill="white"/>
</g>
<defs>
<clipPath id="clip0_1_183">
<rect width="129" height="32" fill="white"/>
</clipPath>
</defs>
</svg>
