<svg width="102" height="31" viewBox="0 0 102 31" fill="none" xmlns="http://www.w3.org/2000/svg">
<path d="M0.885899 11.796C0.885899 5.14438 6.06307 0 12.7475 0C19.432 0 24.6419 5.14438 24.6419 11.796C24.6419 18.6115 19.432 23.9197 12.7475 23.9197C6.06307 23.9197 0.885899 18.6115 0.885899 11.796ZM4.29366 11.796C4.29366 16.9076 8.06186 20.8396 12.7475 20.8396C17.4332 20.8396 21.2342 16.9076 21.2342 11.796C21.2342 6.84825 17.4332 3.04731 12.7475 3.04731C8.06186 3.04731 4.29366 6.84825 4.29366 11.796Z" fill="white"/>
<path d="M26.4234 28.3694L27.4851 26.8949C27.4851 26.8949 28.8809 28.4677 31.0042 28.4677C32.5181 28.4677 33.7763 27.4258 33.7763 25.9316C33.7763 24.3785 32.3805 23.4544 30.7683 23.4544H29.805L29.3725 22.4124L32.2625 18.7753C32.6754 18.1855 33.0882 17.871 33.0882 17.871V17.8317C33.0882 17.8317 32.6754 17.8906 31.9086 17.8906H29.2152C28.9399 17.8906 28.7826 18.0283 28.7826 18.3232V19.2079H26.9936V17.4581C26.9936 16.5734 27.2885 16.1999 28.1732 16.1999H35.4868V17.4385L31.8496 21.8423C33.6387 22.0389 35.7817 23.2382 35.7817 25.9119C35.7817 28.2318 33.8943 30.3158 31.0042 30.3158C28.1339 30.3158 26.4234 28.3694 26.4234 28.3694Z" fill="white"/>
<path d="M45.9852 23.5265V3.21114H41.3651C40.8736 3.21114 40.6442 3.44051 40.6442 3.93201V5.40651H37.6952V2.35921C37.6952 0.884702 38.1867 0.393202 39.6612 0.393202H55.586C57.0605 0.393202 57.552 0.884702 57.552 2.35921V5.40651H54.6357V3.93201C54.6357 3.44051 54.3736 3.21114 53.9148 3.21114H49.2619V23.5265H45.9852Z" fill="white"/>
<path d="M61.1837 23.5265V3.21114H59.0539V0.393202H69.2444C73.5041 0.393202 76.5187 3.24391 76.5187 7.63465C76.5187 12.0254 73.5041 14.9744 69.2444 14.9744H64.4604V23.5265H61.1837ZM64.4604 12.1565H68.7201C71.4725 12.1565 73.1437 10.4198 73.1437 7.63465C73.1437 4.84948 71.4725 3.21114 68.7529 3.21114H64.4604V12.1565Z" fill="white"/>
<path d="M80.3839 23.5265V3.93201C80.3839 3.44051 80.1217 3.21114 79.663 3.21114H78.254V0.393202H81.5635C83.038 0.393202 83.6606 1.01577 83.6606 2.49027V15.171C83.6606 16.4817 83.464 18.4804 83.464 18.4804H83.5295C83.5295 18.4804 84.7746 16.3834 85.5938 15.1382L95.686 0.393202H98.8972V19.9877C98.8972 20.4464 99.1593 20.7086 99.6181 20.7086H101.027V23.5265H97.7504C96.2431 23.5265 95.6205 22.904 95.6205 21.4294V8.71595C95.6205 7.43805 95.8171 5.34098 95.8171 5.34098H95.7516C95.7516 5.34098 94.6047 7.47082 93.7856 8.71595L83.6278 23.5265H80.3839Z" fill="white"/>
</svg>
