<svg width="64" height="64" viewBox="0 0 64 64" fill="none" xmlns="http://www.w3.org/2000/svg">
<path d="M31.9997 5.33301C17.2797 5.33301 5.33301 17.2797 5.33301 31.9997C5.33301 46.7197 17.2797 58.6663 31.9997 58.6663C46.7197 58.6663 58.6663 46.7197 58.6663 31.9997C58.6663 17.2797 46.7197 5.33301 31.9997 5.33301ZM44.373 23.4663C43.973 27.6797 42.2397 37.9197 41.3597 42.6397C40.9863 44.6397 40.2397 45.3063 39.5463 45.3863C37.9997 45.5197 36.8263 44.373 35.333 43.3863C32.9863 41.8397 31.653 40.8797 29.3863 39.3863C26.7463 37.653 28.453 36.693 29.973 35.1463C30.373 34.7463 37.1997 28.533 37.333 27.973C37.3515 27.8882 37.3491 27.8001 37.3258 27.7165C37.3026 27.6328 37.2593 27.5561 37.1997 27.493C37.0397 27.3597 36.8263 27.413 36.6397 27.4397C36.3997 27.493 32.6663 29.973 25.3863 34.8797C24.3197 35.5997 23.3597 35.973 22.5063 35.9463C21.5463 35.9197 19.733 35.413 18.373 34.9597C16.693 34.4263 15.3863 34.133 15.493 33.1997C15.5463 32.7197 16.213 32.2397 17.4663 31.733C25.253 28.3463 30.4263 26.1063 33.013 25.0397C40.4263 21.9463 41.9463 21.413 42.9597 21.413C43.173 21.413 43.6797 21.4663 43.9997 21.733C44.2663 21.9463 44.3463 22.2397 44.373 22.453C44.3463 22.613 44.3997 23.093 44.373 23.4663Z" fill="white"/>
</svg>
