<svg width="203" height="50" viewBox="0 0 203 50" fill="none" xmlns="http://www.w3.org/2000/svg">
<g clip-path="url(#clip0_1_5)">
<path d="M41.1647 33.8218C40.9476 34.7866 37.9615 38.1008 34.0588 35.9348C31.7963 34.6757 30.161 30.9033 36.1814 26.1371C47.1514 17.4537 39.2109 7.23633 39.2109 7.23633C33.9913 17.2849 11.0287 15.9197 3.34392 26.7401C-5.37318 39.0366 4.14955 52.8962 18.1297 49.4711C7.48781 44.8207 7.25625 30.5897 19.876 27.6518C22.1627 27.1212 27.4209 26.2914 29.3168 25.0806C29.3168 25.0806 28.9743 29.2196 23.909 32.5048C22.8959 33.1609 19.5962 34.6757 19.5962 37.0009C19.5962 41.2268 26.4078 40.18 28.1156 37.2855C29.0804 41.1206 26.9385 44.8352 21.4197 45.2404C24.565 50.6096 35.1153 52.4138 40.1709 45.4334C42.7856 41.8153 43.157 36.75 41.1647 33.8218Z" fill="white"/>
<path d="M35.9597 6.31954C37.2284 4.52498 37.4744 2.31556 36.4421 0C33.5862 4.24036 25.3467 5.02669 25.3467 12.0602C29.9778 10.7384 33.9287 9.19469 35.9597 6.31954Z" fill="white"/>
<path d="M76.5397 21.3752C77.7554 19.682 77.3742 17.873 76.2744 16.5029C74.3833 19.1851 68.4594 19.2189 69.4435 24.5543C71.6288 23.7294 75.2227 23.2132 76.5397 21.3752Z" fill="white"/>
<path d="M97.066 43.6912C91.5665 43.6912 88.2765 40.4639 89.3233 34.1492C90.1241 29.3251 94.2921 25.707 99.8253 25.707C105.286 25.707 107.742 29.0405 106.912 34.043C106.608 35.8858 104.939 36.3103 103.564 36.3103H94.7407C95.0205 38.65 96.6704 39.8223 99.9556 39.8223C102.647 39.8223 103.583 39.3399 105.228 38.8092C105.209 38.8092 105.523 43.6912 97.066 43.6912ZM94.9385 33.2278H100.698C101.195 33.2278 101.62 32.8659 101.692 32.3739C102.011 30.4443 101.07 29.1804 99.1741 29.1804C96.7958 29.19 95.5029 30.7096 94.9337 33.2278H94.9385Z" fill="white"/>
<path d="M114.071 43.6912C107.963 43.6912 109.3 38.8092 109.3 38.8092C110.313 39.8223 112.059 40.0104 113.434 40.0104C115.108 40.0104 116.328 39.6148 116.497 38.6886C116.878 36.3827 108.369 38.2062 109.444 31.7033C110.062 27.9792 113.897 25.707 118.243 25.707C122.296 25.707 124.563 27.4823 124.167 29.8557C123.907 31.4139 122.657 32.0169 121.022 32.0169H119.575L119.676 31.4139C119.893 30.1018 119.247 29.2865 117.689 29.2865C116.241 29.2865 115.32 30.1355 115.17 31.0232C114.587 34.5351 123.212 32.0507 122.19 38.2207C121.562 41.9883 117.751 43.6912 114.071 43.6912Z" fill="white"/>
<path d="M132.084 30.0014L131.119 35.8916C130.699 38.4098 131.408 39.7509 133.859 39.7509C134.988 39.7509 136.112 39.5386 137.159 39.1141C137.159 39.1141 138.664 43.6873 130.825 43.6873C127.149 43.6873 124.867 41.9844 125.73 36.7696L127.66 25.1918C128.109 22.4951 129.107 20.2471 133.719 20.2471L132.754 26.0601L136.614 25.8624C138.437 25.8624 138.823 26.8272 137.747 29.9966L132.084 30.0014Z" fill="white"/>
<path d="M146.604 43.6912C141.033 43.6912 137.974 39.9332 138.886 34.3614C139.788 28.9343 143.71 25.707 149.576 25.707C155.442 25.707 158.259 28.9343 157.357 34.3614C156.441 39.9332 152.104 43.6912 146.604 43.6912ZM148.91 29.7882C146.088 29.7882 144.815 31.631 144.361 34.3614C143.908 37.0918 144.733 39.5039 147.299 39.5039C149.865 39.5039 151.457 37.0581 151.906 34.3614C152.355 31.6648 151.699 29.7882 148.91 29.7882Z" fill="white"/>
<path d="M198.313 25.707C195.824 25.707 193.634 26.5946 191.444 29.0405C191.082 26.9854 189.62 25.707 187.131 25.707C184.642 25.707 182.577 26.7345 180.686 28.9343L181.169 25.9193C176.562 25.9193 175.93 25.9193 175.481 28.6159L173.04 43.3342C177.579 43.3342 178.269 43.3342 178.713 40.7292L179.774 34.3276C180.228 31.5972 182.1 30.1789 183.846 30.1789C185.592 30.1789 186.147 31.3126 185.8 33.4062L184.15 43.339C188.656 43.339 189.37 43.339 189.813 40.7823L190.904 34.2215C191.386 31.5972 193.287 30.1789 194.956 30.1789C196.702 30.1789 197.257 31.3126 196.885 33.4062L195.236 43.339C199.804 43.339 200.475 43.339 200.918 40.6761L202.467 31.3464C203.084 27.873 201.806 25.707 198.313 25.707Z" fill="white"/>
<path d="M172.075 25.707C170.291 25.707 168.279 26.8793 166.412 29.3974L166.991 25.9193C162.384 25.9193 161.752 25.9193 161.303 28.6159L158.862 43.3342C163.402 43.3342 164.092 43.3342 164.535 40.7292L165.254 36.3875C166.065 31.4911 168.805 30.0053 172.934 30.6421C173.856 26.778 173.638 25.707 172.075 25.707Z" fill="white"/>
<path d="M88.7395 25.707C86.9545 25.707 84.9429 26.8793 83.0712 29.3974L83.65 25.9193C79.0431 25.9193 78.4111 25.9193 77.9625 28.6159L75.5215 43.3342C80.0609 43.3342 80.7508 43.3342 81.1946 40.7292L81.9182 36.3875C82.7287 31.4911 85.4687 30.0053 89.5981 30.6421C90.534 26.778 90.2976 25.707 88.7395 25.707Z" fill="white"/>
<path d="M74.2292 25.9248C69.6222 25.9248 68.9902 25.9248 68.5416 28.6215L66.1006 43.3397C70.64 43.3397 71.3299 43.3397 71.7737 40.7347L74.2292 25.9248Z" fill="white"/>
<path d="M64.3495 25.8663L60.4902 26.0593L60.6397 25.1572C61.0208 22.8513 62.3089 21.597 64.7257 21.597C65.2274 21.6115 65.7291 21.6838 66.2164 21.8093C66.2164 21.8093 68.3727 17.6943 63.4425 17.6943C59.0188 17.6943 56.1582 20.5888 55.4876 24.6458L52.3857 43.3295C56.9397 43.3295 57.6199 43.3295 58.0637 40.6955L59.8389 29.9909H65.4831C66.5782 26.8263 66.1923 25.8663 64.3495 25.8663Z" fill="white"/>
</g>
<defs>
<clipPath id="clip0_1_5">
<rect width="203" height="50" fill="white"/>
</clipPath>
</defs>
</svg>
